<svg width="766" height="336" viewBox="0 0 766 336" fill="none" xmlns="http://www.w3.org/2000/svg">
<path d="M215.084 68.0842H55.7053L0 3.09474L215.084 0C259.995 8.57337 280.345 21.6954 303.284 68.0842C308.066 82.6537 308.016 91.2362 307.929 106.273L307.926 106.768C307.971 121.356 305.063 135.862 303.284 142.358C301.506 148.854 277.511 188.678 244.484 205.8L318.758 294H280.074L142.358 139.263H215.084C261.068 115.605 227.882 69.0067 215.084 68.0842Z" fill="url(#paint0_linear_160_1042)"/>
<path d="M239.842 294V290.905L66.5368 109.932V241.389H105.221L153.189 294H239.842Z" fill="black"/>
<path d="M322.889 252.751C322.886 251.908 323.296 251.485 324.119 251.482L349.641 251.385C350.463 251.382 350.876 251.802 350.88 252.644C350.883 253.427 350.886 254.229 350.889 255.052C350.912 255.855 350.895 256.647 350.838 257.43C350.78 258.233 350.371 258.636 349.608 258.639L340.88 258.672C340.639 258.673 340.519 258.793 340.52 259.034C340.528 261.161 340.526 263.288 340.514 265.415C340.522 267.522 340.53 269.639 340.539 271.765C340.552 275.196 340.575 278.637 340.608 282.088C340.641 285.519 340.664 288.95 340.677 292.382C340.68 293.204 340.271 293.617 339.448 293.62L334.241 293.64C333.418 293.643 333.006 293.233 333.002 292.411C332.989 288.879 332.986 285.348 332.992 281.816C333.019 278.285 333.026 274.764 333.012 271.252L332.936 259.063C332.935 258.822 332.804 258.702 332.543 258.703L324.206 258.735C323.444 258.738 323.031 258.338 322.968 257.536C322.905 256.754 322.872 255.961 322.868 255.159C322.885 254.336 322.892 253.533 322.889 252.751ZM356.508 252.623C356.504 251.78 356.914 251.357 357.737 251.354L381.694 251.263C382.517 251.26 382.93 251.68 382.933 252.522C382.936 253.305 382.939 254.108 382.942 254.93C382.945 255.733 382.928 256.525 382.891 257.308C382.834 258.111 382.424 258.514 381.661 258.517L364.566 258.582C364.326 258.583 364.206 258.703 364.207 258.944C364.213 260.569 364.219 262.195 364.225 263.82C364.251 265.425 364.267 267.04 364.274 268.665C364.275 268.906 364.395 269.026 364.636 269.025L379.444 268.969C380.266 268.966 380.679 269.375 380.682 270.198L380.698 274.321C380.701 275.144 380.292 275.557 379.469 275.56L364.661 275.616C364.42 275.617 364.301 275.738 364.301 275.979C364.308 277.624 364.304 279.28 364.29 280.945C364.296 282.59 364.303 284.246 364.309 285.911C364.31 286.152 364.431 286.272 364.672 286.271L382.489 286.203C383.251 286.2 383.664 286.6 383.728 287.402C383.771 288.185 383.794 288.987 383.797 289.81C383.82 290.612 383.833 291.405 383.836 292.187C383.839 293.03 383.43 293.453 382.607 293.456L357.867 293.55C357.045 293.553 356.632 293.133 356.628 292.291C356.624 291.187 356.63 290.094 356.646 289.01C356.682 287.906 356.708 286.803 356.724 285.699C356.766 281.084 356.779 276.479 356.762 271.884C356.749 268.654 356.707 265.444 356.635 262.254C356.562 259.043 356.52 255.833 356.508 252.623ZM416.911 283.845C417.192 283.844 417.403 283.943 417.545 284.143C417.706 284.323 417.847 284.524 417.968 284.744C418.089 284.944 418.332 285.415 418.696 286.156C419.06 286.877 419.404 287.598 419.727 288.319C420.051 289.02 420.213 289.451 420.214 289.611C420.215 289.912 420.046 290.204 419.706 290.486C418.285 291.575 416.513 292.404 414.388 292.974C412.263 293.524 410.308 293.802 408.522 293.809C404.308 293.825 400.683 292.886 397.646 290.991C394.629 289.096 392.302 286.527 390.664 283.283C389.047 280.038 388.23 276.39 388.215 272.336C388.204 269.427 388.615 266.677 389.448 264.085C390.301 261.473 391.546 259.171 393.184 257.179C394.821 255.166 396.832 253.593 399.215 252.46C401.619 251.308 404.365 250.725 407.455 250.714C409.281 250.707 411.228 250.95 413.297 251.444C415.365 251.938 417.164 252.683 418.693 253.681C419.095 253.94 419.297 254.24 419.298 254.581C419.299 254.682 419.199 254.973 419.001 255.455C418.822 255.937 418.603 256.49 418.345 257.113C418.086 257.716 417.837 258.269 417.599 258.771C417.38 259.274 417.231 259.605 417.151 259.766C417.051 259.967 416.922 260.178 416.762 260.4C416.622 260.601 416.412 260.702 416.131 260.703C415.951 260.704 415.78 260.664 415.619 260.585C415.478 260.485 415.327 260.395 415.167 260.315C414.02 259.597 412.854 259.03 411.669 258.613C410.503 258.176 409.228 257.96 407.844 257.966C405.978 257.973 404.314 258.4 402.853 259.249C401.391 260.077 400.151 261.185 399.133 262.573C398.135 263.962 397.379 265.5 396.863 267.187C396.348 268.874 396.094 270.561 396.1 272.246C396.11 274.794 396.56 277.16 397.451 279.344C398.363 281.508 399.734 283.258 401.565 284.596C403.396 285.913 405.695 286.566 408.464 286.556C409.869 286.55 411.162 286.355 412.345 285.969C413.547 285.583 414.729 285.017 415.89 284.27C416.05 284.169 416.21 284.078 416.37 283.997C416.53 283.897 416.711 283.846 416.911 283.845ZM461.511 250.959C462.334 250.956 462.747 251.376 462.75 252.219C462.754 253.242 462.738 254.265 462.701 255.289C462.665 256.312 462.639 257.336 462.623 258.359C462.591 260.506 462.569 262.663 462.557 264.83C462.545 266.997 462.543 269.154 462.551 271.301C462.56 273.609 462.579 275.926 462.608 278.254C462.637 280.581 462.676 282.908 462.725 285.236C462.769 286.339 462.814 287.453 462.858 288.576C462.902 289.679 462.927 290.783 462.931 291.886C462.934 292.729 462.524 293.152 461.702 293.155L456.525 293.175C456.083 293.177 455.782 293.077 455.621 292.877C455.46 292.677 455.348 292.377 455.286 291.976C455.245 291.615 455.213 291.113 455.19 290.471C455.188 289.809 455.185 289.137 455.183 288.455C455.2 287.772 455.208 287.221 455.206 286.799C455.133 283.188 455.089 279.576 455.075 275.965C455.074 275.724 454.943 275.604 454.682 275.605L434.457 275.682C434.216 275.683 434.097 275.804 434.097 276.045C434.111 279.656 434.095 283.268 434.048 286.88C434.05 287.301 434.052 287.853 434.055 288.535C434.077 289.217 434.09 289.889 434.092 290.551C434.095 291.194 434.067 291.695 434.008 292.057C433.949 292.458 433.84 292.76 433.68 292.961C433.541 293.162 433.24 293.263 432.778 293.265L427.572 293.285C426.749 293.288 426.336 292.868 426.333 292.026C426.329 290.922 426.345 289.818 426.38 288.715C426.436 287.591 426.472 286.477 426.488 285.374C426.519 283.046 426.541 280.718 426.552 278.391C426.563 276.063 426.564 273.746 426.556 271.438C426.547 269.291 426.529 267.134 426.501 264.967C426.473 262.801 426.434 260.644 426.386 258.497C426.362 257.474 426.328 256.451 426.284 255.427C426.24 254.404 426.216 253.381 426.212 252.358C426.209 251.515 426.619 251.092 427.441 251.089L432.648 251.069C433.11 251.067 433.411 251.167 433.552 251.367C433.713 251.567 433.825 251.867 433.887 252.268C433.969 252.81 433.992 253.642 433.956 254.766C433.94 255.87 433.944 256.743 433.966 257.385C433.993 259.17 434.01 260.966 434.017 262.772C434.044 264.558 434.061 266.343 434.067 268.129C434.068 268.37 434.199 268.49 434.46 268.489L454.655 268.412C454.916 268.411 455.046 268.29 455.045 268.049C455.038 266.263 455.031 264.478 455.024 262.692C455.038 260.886 455.051 259.09 455.064 257.304C455.082 256.662 455.068 255.789 455.024 254.686C455 253.563 455.027 252.73 455.105 252.188C455.164 251.786 455.273 251.485 455.433 251.284C455.592 251.082 455.893 250.981 456.334 250.979L461.511 250.959ZM507.152 294.186C507.032 294.187 506.428 293.697 505.341 292.718C504.274 291.719 502.894 290.42 501.203 288.821C499.511 287.203 497.659 285.434 495.645 283.515C493.631 281.577 491.627 279.648 489.633 277.729C487.64 275.791 485.797 274.022 484.105 272.423C482.434 270.804 481.075 269.505 480.027 268.526C479 267.547 478.457 267.057 478.397 267.058C478.296 267.058 478.236 267.138 478.217 267.299C478.197 267.44 478.188 267.54 478.188 267.6C478.195 269.426 478.202 271.252 478.209 273.078C478.236 274.883 478.253 276.699 478.26 278.525C478.265 280.05 478.271 281.575 478.277 283.1C478.283 284.605 478.279 286.13 478.264 287.675C478.267 288.317 478.28 289.019 478.302 289.781C478.346 290.544 478.328 291.246 478.25 291.888C478.212 292.29 478.113 292.591 477.953 292.792C477.793 292.994 477.482 293.095 477.021 293.097L471.694 293.117C470.871 293.12 470.458 292.701 470.455 291.858C470.451 290.714 470.466 289.57 470.502 288.427C470.558 287.283 470.594 286.139 470.609 284.995C470.641 282.708 470.662 280.42 470.674 278.133C470.685 275.845 470.686 273.558 470.678 271.27C470.668 268.863 470.649 266.455 470.62 264.047C470.591 261.64 470.542 259.232 470.472 256.824C470.448 255.681 470.403 254.537 470.339 253.394C470.294 252.25 470.27 251.107 470.266 249.963C470.265 249.843 470.325 249.782 470.445 249.782C470.566 249.781 470.666 249.821 470.747 249.901C475.539 254.317 480.231 258.844 484.824 263.482C489.416 268.099 494.069 272.656 498.781 277.153C498.821 277.193 498.882 277.253 498.962 277.333C499.043 277.393 499.123 277.422 499.203 277.422C499.324 277.422 499.384 277.351 499.383 277.211C499.402 277.05 499.412 276.94 499.412 276.88C499.405 275.014 499.388 273.158 499.361 271.312C499.353 269.446 499.346 267.58 499.339 265.714C499.333 264.109 499.327 262.513 499.321 260.928C499.315 259.323 499.319 257.728 499.333 256.143C499.33 255.481 499.318 254.799 499.295 254.096C499.272 253.394 499.29 252.712 499.348 252.05C499.386 251.628 499.485 251.317 499.645 251.115C499.805 250.914 500.115 250.813 500.577 250.811L505.753 250.791C506.576 250.788 506.989 251.208 506.992 252.051C506.996 253.094 506.98 254.137 506.944 255.181C506.908 256.224 506.882 257.278 506.866 258.341C506.834 260.529 506.812 262.736 506.801 264.963C506.789 267.17 506.787 269.377 506.796 271.584C506.824 279.089 506.973 286.592 507.242 294.096L507.152 294.186ZM513.208 271.921C513.197 269.112 513.668 266.422 514.622 263.85C515.595 261.258 516.961 258.945 518.719 256.912C520.497 254.879 522.597 253.275 525.021 252.102C527.464 250.909 530.151 250.307 533.08 250.296C536.009 250.285 538.7 250.867 541.153 252.041C543.605 253.216 545.728 254.823 547.522 256.862C549.335 258.882 550.738 261.184 551.731 263.769C552.744 266.353 553.256 269.05 553.267 271.859C553.278 274.668 552.786 277.359 551.793 279.931C550.819 282.483 549.434 284.765 547.635 286.779C545.837 288.792 543.716 290.385 541.273 291.558C538.829 292.731 536.153 293.324 533.244 293.335C530.274 293.346 527.563 292.784 525.111 291.65C522.679 290.495 520.576 288.918 518.803 286.919C517.029 284.919 515.656 282.637 514.683 280.072C513.71 277.487 513.219 274.77 513.208 271.921ZM533.487 286.08C536.055 286.07 538.22 285.36 539.98 283.949C541.76 282.537 543.108 280.736 544.022 278.546C544.957 276.355 545.42 274.106 545.411 271.799C545.402 269.431 544.912 267.156 543.941 264.972C542.969 262.789 541.568 260.998 539.737 259.601C537.926 258.183 535.726 257.479 533.137 257.489C530.609 257.499 528.425 258.209 526.584 259.621C524.764 261.032 523.366 262.833 522.391 265.024C521.416 267.195 520.933 269.454 520.942 271.802C520.951 274.169 521.462 276.455 522.473 278.658C523.505 280.841 524.956 282.631 526.828 284.029C528.699 285.406 530.919 286.09 533.487 286.08ZM559.301 251.852C559.297 251.009 559.707 250.586 560.53 250.583L565.676 250.563C566.499 250.56 566.912 250.97 566.915 251.793C566.929 255.384 566.952 258.976 566.986 262.567C567.04 266.159 567.074 269.75 567.087 273.342C567.095 275.288 567.092 277.254 567.08 279.241C567.087 281.207 567.095 283.173 567.102 285.14C567.103 285.38 567.224 285.5 567.465 285.5L583.988 285.437C584.79 285.434 585.203 285.833 585.226 286.636L585.335 291.421C585.378 292.263 584.969 292.686 584.106 292.69L560.66 292.779C559.838 292.782 559.425 292.362 559.421 291.519C559.417 290.416 559.423 289.322 559.439 288.239C559.475 287.135 559.501 286.031 559.517 284.928C559.559 280.313 559.572 275.708 559.555 271.113C559.542 267.883 559.5 264.672 559.428 261.482C559.355 258.272 559.313 255.062 559.301 251.852ZM589.834 271.63C589.824 268.821 590.295 266.13 591.248 263.558C592.222 260.966 593.587 258.654 595.345 256.62C597.123 254.587 599.224 252.984 601.648 251.811C604.091 250.618 606.777 250.016 609.707 250.005C612.636 249.993 615.327 250.575 617.779 251.75C620.232 252.924 622.355 254.531 624.148 256.571C625.962 258.591 627.365 260.893 628.358 263.477C629.371 266.062 629.883 268.759 629.894 271.568C629.904 274.377 629.413 277.067 628.42 279.639C627.446 282.191 626.06 284.474 624.262 286.487C622.464 288.501 620.343 290.094 617.9 291.267C615.456 292.44 612.78 293.032 609.87 293.043C606.901 293.054 604.19 292.493 601.738 291.359C599.305 290.204 597.203 288.627 595.429 286.627C593.656 284.627 592.283 282.345 591.31 279.781C590.337 277.196 589.845 274.479 589.834 271.63ZM610.114 285.789C612.682 285.779 614.846 285.068 616.607 283.657C618.387 282.246 619.735 280.445 620.649 278.254C621.584 276.064 622.047 273.815 622.038 271.507C622.029 269.14 621.539 266.864 620.567 264.681C619.596 262.497 618.195 260.707 616.364 259.309C614.552 257.892 612.353 257.188 609.764 257.198C607.236 257.207 605.052 257.918 603.211 259.329C601.391 260.741 599.993 262.542 599.018 264.733C598.043 266.903 597.56 269.163 597.569 271.51C597.578 273.878 598.088 276.163 599.1 278.367C600.132 280.55 601.583 282.34 603.454 283.737C605.326 285.115 607.545 285.799 610.114 285.789ZM671.008 287.784C671.01 288.166 670.85 288.487 670.53 288.749C669.53 289.556 668.189 290.273 666.505 290.902C664.842 291.51 663.129 291.988 661.364 292.336C659.6 292.683 658.076 292.86 656.791 292.865C652.638 292.88 648.883 292.102 645.526 290.53C642.169 288.937 639.502 286.62 637.524 283.578C635.546 280.535 634.549 276.837 634.532 272.483C634.515 267.969 635.373 264.013 637.106 260.615C638.858 257.217 641.376 254.569 644.66 252.671C647.943 250.772 651.872 249.814 656.447 249.797C658.273 249.79 660.29 249.973 662.499 250.346C664.727 250.718 666.656 251.323 668.284 252.159C668.767 252.398 669.009 252.719 669.01 253.12C669.011 253.24 668.902 253.682 668.684 254.445C668.467 255.209 668.239 255.982 668.001 256.765C667.763 257.529 667.604 258.011 667.525 258.212C667.446 258.473 667.336 258.704 667.196 258.905C667.057 259.107 666.826 259.208 666.505 259.209C666.365 259.21 666.234 259.19 666.114 259.15C665.993 259.111 665.873 259.071 665.752 259.031C664.325 258.455 662.889 258.029 661.443 257.753C659.998 257.458 658.502 257.313 656.957 257.319C652.503 257.336 648.946 258.634 646.288 261.212C643.649 263.77 642.338 267.297 642.355 271.791C642.371 276.005 643.628 279.321 646.125 281.739C648.642 284.157 651.988 285.359 656.161 285.343C657.465 285.338 658.829 285.202 660.253 284.936C661.676 284.67 662.979 284.253 664.161 283.687C664.301 283.626 664.371 283.516 664.37 283.355C664.366 282.232 664.351 281.098 664.327 279.954C664.303 278.811 664.288 277.677 664.284 276.554C664.283 276.313 664.152 276.193 663.891 276.194L656.849 276.221C656.026 276.224 655.613 275.814 655.61 274.991L655.599 272.042C655.596 271.219 656.005 270.806 656.828 270.803L669.499 270.755C670.321 270.752 670.734 271.162 670.737 271.984C670.747 274.613 670.788 277.251 670.858 279.899C670.948 282.528 670.998 285.156 671.008 287.784ZM687.996 291.061C687.995 290.8 687.992 290.228 687.989 289.345C688.006 288.462 688.012 287.439 688.007 286.275C688.023 285.111 688.029 283.967 688.025 282.844C688.02 281.72 688.017 280.777 688.014 280.015C688.011 279.232 687.999 278.821 687.979 278.781C687.412 277.459 686.805 276.147 686.158 274.845C685.531 273.543 684.904 272.251 684.277 270.97C682.78 267.765 681.263 264.58 679.726 261.416C678.189 258.252 676.642 255.087 675.085 251.923C674.904 251.562 674.812 251.252 674.811 250.991C674.81 250.61 674.969 250.378 675.29 250.297C675.611 250.195 675.901 250.144 676.162 250.143L682.844 250.118C683.345 250.116 683.728 250.365 683.99 250.866C684.415 251.667 684.799 252.528 685.144 253.45C685.508 254.371 685.873 255.253 686.237 256.094C687.128 258.238 688.019 260.381 688.91 262.525C689.801 264.668 690.712 266.812 691.644 268.955C691.684 269.015 691.724 269.095 691.765 269.196C691.825 269.296 691.896 269.346 691.976 269.345C692.076 269.345 692.146 269.294 692.186 269.194C692.246 269.073 692.286 268.983 692.306 268.923C693.2 266.772 694.075 264.622 694.93 262.472C695.784 260.322 696.639 258.181 697.494 256.051C697.812 255.288 698.159 254.393 698.537 253.369C698.934 252.344 699.302 251.49 699.641 250.806C699.92 250.304 700.3 250.051 700.781 250.049L707.433 250.024C707.714 250.023 708.015 250.072 708.336 250.171C708.658 250.25 708.819 250.48 708.821 250.862C708.822 251.142 708.733 251.464 708.553 251.826C706.941 255.163 705.318 258.49 703.685 261.806C702.073 265.103 700.47 268.43 698.878 271.787C698.32 272.933 697.763 274.089 697.205 275.255C696.648 276.4 696.111 277.566 695.594 278.752L695.564 278.903C695.572 280.909 695.589 282.925 695.617 284.952C695.645 286.978 695.663 289.005 695.67 291.031C695.673 291.854 695.264 292.267 694.441 292.27L689.234 292.29C688.412 292.293 687.999 291.883 687.996 291.061Z" fill="#3F76DD"/>
<path d="M348 228.696V195.47H411.258C418.444 188.348 418.431 184.059 411.258 175.837H348V163H414.979C414.979 163 429.6 168.804 433.584 175.837C437.529 182.803 436.375 190.939 433.584 195.47C430.793 200.001 423.168 204.168 414.979 207.552L433.584 228.696H413.118L392.652 207.552H364.745V228.696H348Z" fill="black"/>
<path d="M470.635 203.058L436.128 163H452.152L478.59 193.444L500.221 163H517.847L485.784 203.058V228.696H470.635V203.058Z" fill="black"/>
<path d="M535.473 217.784L578.736 176.123H535.473V163.304L602.508 163V176.123L557.905 216.181V217.784H602.508V229H535.473V217.784Z" fill="black"/>
<path d="M637.793 200.366H670.755V187.035H626.806V228.696H678.08V213.073H637.793V200.366Z" fill="black"/>
<path d="M678.08 175.819H626.837C626.633 169.581 627.37 166.725 630.497 163H678.08V175.819Z" fill="black"/>
<defs>
<linearGradient id="paint0_linear_160_1042" x1="159.379" y1="0" x2="159.379" y2="294" gradientUnits="userSpaceOnUse">
<stop stop-color="#4582F3"/>
<stop offset="0.5" stop-color="#2D55A2"/>
<stop offset="0.75" stop-color="#2D589F"/>
<stop offset="1" stop-color="#3666C1"/>
</linearGradient>
</defs>
</svg>
